PathFileType	3	(X/Y/Z)	uphill_walking_calibrated.trc																																																																												
DataRate	CameraRate	NumFrames	NumMarkers	Units	OrigDataRate	OrigDataStartFrame	OrigNumFrames																																																																								
100	100	14	26	mm	100	3047	556																																																																								
Frame#	Time	RAcromium			LAcromium			C7			Clavicle			VSacral			RASIS			LASIS			RHip			LHip			RKneeLat			RKneeMed			LKneeMed			LKneeLat			LShankFront			RShankFront			RAnkleLat			RAnkleMed			LAnkleMed			LAnkleLat			LToeLat			LToeTip			RToeTip			RToeLat			RHeel			LHeel			T10		
		X1	Y1	Z1	X2	Y2	Z2	X3	Y3	Z3	X4	Y4	Z4	X5	Y5	Z5	X6	Y6	Z6	X7	Y7	Z7	X8	Y8	Z8	X9	Y9	Z9	X10	Y10	Z10	X11	Y11	Z11	X12	Y12	Z12	X13	Y13	Z13	X14	Y14	Z14	X15	Y15	Z15	X16	Y16	Z16	X17	Y17	Z17	X18	Y18	Z18	X19	Y19	Z19	X20	Y20	Z20	X21	Y21	Z21	X22	Y22	Z22	X23	Y23	Z23	X24	Y24	Z24	X25	Y25	Z25	X26	Y26	Z26
3047	30.46	1187.8385	1403.4692	-446.31006	1165.5587	1417.0424	-710.98291	1147.0231	1473.4531	-571.58911	1202.1583	1280.24	-591.22906	795.6369	1067.0986	-539.9483	967.12085	1002.9261	-421.16464	968.53839	1010.6273	-682.40222	882.3208	938.59784	-379.7012	890.91217	953.96545	-753.70203	765.74323	494.45416	-440.81622	727.43292	506.26849	-567.12451	1102.4663	554.92438	-583.88916	1116.0297	564.21411	-708.18164	1123.5493	465.42169	-659.17383	775.17798	406.04227	-504.36188	540.05609	96.233276	-473.63654	561.14331	105.31689	-559.18121	855.94794	205.18629	-601.26532	814.25446	199.7149	-680.32281	928.94708	93.05854	-729.94269	999.76489	76.313858	-667.73267	746.13922	39.694412	-506.77573	673.99243	35.602589	-432.91919	448.13422	25.569551	-516.70984	721.56848	161.47874	-627.4762	917.3457	1249.0315	-547.15063
3048	30.47	1186.8206	1400.8173	-446.30371	1164.0143	1414.1262	-711.0354	1146.0558	1470.3723	-571.91443	1200.8179	1277.4614	-591.5434	793.7514	1064.3901	-540.67682	965.04065	1000.2991	-421.11972	967.03796	1007.7321	-682.45111	879.1618	936.396	-379.85858	889.25745	951.36255	-754.30328	756.74939	493.6727	-440.44574	719.42957	505.52444	-566.98956	1108.7365	557.54352	-584.46478	1121.1268	567.00281	-708.44397	1131.2715	468.19037	-660.18707	765.84479	405.26993	-503.7619	530.01581	96.320221	-473.98489	551.22913	105.2496	-559.5246	876.5083	196.87862	-601.91339	835.14307	189.31097	-680.95447	955.77979	89.662682	-730.73462	1027.5432	76.560799	-668.10492	735.9895	39.620235	-506.79315	663.77948	35.613426	-433.02527	437.94986	25.759579	-517.00122	744.05597	146.14532	-628.04541	915.97278	1246.1945	-547.34619
3049	30.48	1185.2517	1397.8258	-446.44769	1162.5122	1411.105	-710.98022	1144.6422	1467.359	-571.94006	1199.3542	1274.4346	-591.66876	791.94843	1061.5948	-541.5069	962.94403	997.55719	-421.24365	965.7536	1004.3661	-682.48444	875.91876	934.06537	-379.86771	888.0965	948.44745	-754.99634	748.18628	492.84827	-440.09006	712.15814	504.36206	-566.79279	1113.788	559.68329	-584.92316	1125.5112	569.11963	-708.68597	1139.1426	470.69543	-660.91516	757.36774	403.97934	-503.056	520.05988	96.453537	-474.33072	541.40326	105.2456	-559.81842	896.7132	188.64728	-602.60687	855.70502	179.56487	-681.40875	981.51251	86.598557	-731.6366	1054.1715	77.22155	-668.43903	725.34259	39.067829	-506.99197	653.54852	35.715378	-433.05206	427.83752	25.989952	-517.30304	766.99182	131.00526	-629.1557	914.53186	1243.2523	-547.69647
3050	30.49	1184.0483	1394.4703	-446.20148	1160.9871	1408.0166	-711.24152	1143.4714	1464.0885	-572.12958	1197.8899	1271.2319	-591.88843	790.27423	1058.6727	-542.46002	960.87756	994.68738	-421.39279	964.43939	1001.187	-682.60913	872.71271	931.69257	-380.07495	886.98615	945.53192	-755.92102	739.85199	491.87634	-439.65134	705.21082	503.7449	-566.98981	1117.9884	561.28809	-585.16565	1129.1465	570.6062	-708.76526	1147.9524	473.15289	-660.82159	748.7843	402.80991	-502.27863	510.16568	96.579987	-474.62894	531.59204	105.31857	-560.0802	916.10706	180.54578	-603.47766	875.87537	170.22159	-682.83289	1006.5241	83.539963	-732.52234	1078.9641	77.931107	-669.33917	715.50116	38.743904	-506.87479	643.03723	35.309872	-433.06912	417.71478	26.352583	-517.60492	789.54816	116.47979	-630.63629	913.16388	1239.9993	-548.22284
3051	30.5	1182.3049	1391.3352	-446.49011	1159.5063	1404.741	-711.5387	1142.3026	1460.6172	-572.37573	1196.499	1267.9332	-592.04639	788.79565	1055.6783	-543.53772	958.81793	991.89056	-421.40948	963.05658	997.45685	-682.87457	869.53857	929.17548	-380.4137	885.96484	942.37982	-756.87445	731.90222	490.8688	-439.198	698.78394	502.50851	-566.97791	1121.4066	562.19855	-585.23328	1132.2399	571.35516	-708.53015	1154.7126	474.62286	-660.70312	740.68231	401.60748	-501.23792	500.32413	96.778122	-474.92014	521.90271	105.37227	-560.30695	934.18274	173.04721	-604.34412	895.41754	160.75407	-684.03552	1030.5468	81.099602	-732.99628	1103.6552	78.834457	-669.18652	705.66553	38.554138	-506.55078	632.85443	35.129757	-433.15533	407.60529	26.78228	-517.88458	811.47437	102.89504	-632.39685	911.61945	1236.6906	-548.7981
3052	30.51	1180.7468	1387.7797	-446.42456	1158.2072	1401.661	-712.35822	1141.0096	1457.1628	-572.57684	1195.079	1264.5094	-592.30444	787.26398	1052.5347	-544.52234	956.38263	988.76978	-421.20508	961.84802	993.9389	-682.91785	866.474	926.80823	-380.57764	885.02203	939.10486	-757.65778	724.22937	489.90094	-438.70514	692.58997	501.3219	-566.97461	1123.9496	562.61926	-584.97479	1134.8196	571.37115	-708.15063	1160.1151	475.48364	-660.3739	732.74066	400.22876	-500.29266	490.64954	96.9813	-475.19394	512.35345	105.39973	-560.56189	950.28149	165.74013	-605.85809	913.96454	151.43237	-685.09991	1052.7823	79.087357	-733.19	1125.1824	80.162704	-668.46985	694.94574	37.800911	-506.76788	622.71198	35.089264	-433.14099	397.53607	27.205429	-518.1701	832.10529	89.740608	-634.5517	910.12469	1233.3105	-549.42261
3053	30.52	1179.3003	1384.5448	-446.56134	1156.7358	1398.0424	-712.21033	1139.7944	1453.6826	-572.7995	1193.6639	1261.1322	-592.54797	785.80316	1049.2039	-545.44958	954.50183	985.7597	-421.20654	960.71777	990.1441	-683.05054	863.72778	924.19006	-380.81021	884.15741	935.67102	-758.56012	717.14331	488.68008	-438.31827	686.62695	499.77557	-566.62518	1125.6226	562.23749	-584.6676	1136.9956	570.74316	-707.6142	1164.1539	475.20566	-659.81006	725.16876	399.10452	-499.34	480.92676	97.277069	-475.46811	502.81461	105.61673	-560.75903	966.21216	158.49884	-606.37537	931.46918	142.7527	-686.87842	1073.1887	77.148209	-732.94159	1144.7529	81.08548	-667.40948	684.91602	37.558895	-506.60532	612.59033	35.051392	-433.14435	387.3176	28.133617	-518.47498	851.11859	77.727402	-637.05005	908.71838	1229.8435	-550.10156
3054	30.53	1177.745	1380.9576	-446.66748	1155.3936	1394.816	-713.15338	1138.5961	1450.2333	-573.1015	1192.2438	1257.6831	-592.86334	784.06866	1045.9332	-546.25696	952.74121	982.62506	-421.37665	958.71088	986.49255	-684.08972	861.38751	921.46869	-381.03464	883.0498	932.33618	-759.03821	710.28235	487.48032	-437.94614	680.41095	498.36472	-566.60559	1126.4972	560.90601	-584.35162	1138.6365	569.58472	-707.00476	1166.9186	474.47388	-658.82928	717.60437	397.95761	-498.2547	471.21027	97.638702	-475.68216	493.27469	105.77471	-560.96857	979.86676	151.65611	-607.32935	946.67657	135.12082	-688.65637	1091.8496	75.072449	-731.87781	1162.0112	81.901306	-665.45245	674.89117	37.093288	-506.54633	602.46405	34.802971	-433.14127	377.37634	28.401752	-518.79834	868.11267	66.710686	-639.53271	907.29968	1226.4348	-550.75549
3055	30.54	1176.5303	1377.697	-446.78748	1154.017	1391.5026	-713.7077	1137.5095	1446.8148	-573.68646	1190.8842	1254.3065	-593.2403	782.83008	1042.2563	-547.00891	951.20312	979.30084	-421.55475	958.54419	982.80383	-683.80371	859.26581	918.56873	-381.33984	882.21912	928.84857	-759.72382	703.79205	486.19907	-437.77029	673.77863	497.57068	-566.82874	1126.7471	558.56549	-584.13245	1139.9388	567.79205	-706.55243	1170.1926	472.88342	-657.60431	710.05469	396.5072	-497.89371	461.54709	98.059074	-475.95911	483.78558	106.04479	-561.19983	990.91211	145.81604	-608.18304	960.13458	127.12236	-689.70349	1107.5315	72.58992	-730.53278	1176.3726	82.399178	-663.01849	664.82971	36.680851	-506.47672	592.13715	34.996723	-433.22046	367.13681	29.437891	-519.06036	882.88483	57.216183	-641.86194	905.96136	1222.9935	-551.46008
3056	30.55	1175.1696	1374.2673	-446.84442	1152.6958	1388.0768	-713.59656	1136.0474	1443.7554	-573.95599	1189.5731	1251.1216	-593.56342	782.12933	1038.3141	-547.87482	949.9693	975.83936	-421.84146	957.72253	979.33856	-684.36719	857.53009	915.24304	-381.85159	881.8988	924.91467	-760.42853	697.44952	484.94879	-437.74347	667.67029	496.13751	-566.83038	1126.2841	555.51373	-584.07874	1140.8512	565.39392	-706.08472	1172.5841	470.37012	-656.58234	701.5274	395.24295	-497.48624	451.87943	98.587784	-476.27322	474.40448	106.34246	-561.46777	1000.1376	139.79892	-608.82416	971.17944	119.58034	-690.74597	1120.4106	70.084404	-729.00885	1187.6847	82.175827	-660.1424	654.83466	36.095398	-506.35159	582.00378	34.804352	-433.44153	357.2254	29.976534	-519.51044	894.94196	47.919128	-644.40881	904.73425	1219.5756	-552.19354
3057	30.56	1173.3503	1371.4279	-447.61343	1151.3339	1385.0609	-714.08698	1134.7655	1440.7261	-574.4715	1188.3436	1248.1547	-594.06384	781.29614	1034.4896	-548.65784	949.00409	972.21997	-422.29791	957.47699	976.09198	-684.70184	856.17554	911.89813	-382.49588	881.83514	921.39801	-761.11572	691.30847	483.56671	-437.92325	661.85785	494.83731	-567.15344	1125.538	551.50031	-584.01343	1141.3838	562.36346	-705.8512	1173.0425	467.01196	-656.51105	694.18085	393.82211	-497.67258	442.27295	99.25914	-476.71411	465.00143	106.71371	-561.8551	1005.8968	134.60307	-609.60229	979.46533	112.97645	-692.09564	1129.9807	66.728577	-727.02698	1195.8898	80.839966	-656.89355	644.82611	35.617718	-506.19888	571.78625	34.712502	-433.5788	347.15231	31.009922	-520.04749	903.64233	39.98774	-646.66418	903.513	1216.1982	-552.93872
3058	30.57	1172.135	1368.7878	-447.9252	1149.8649	1382.309	-714.68335	1133.5168	1437.9495	-575.07031	1187.196	1245.4775	-594.61047	780.81763	1030.6394	-549.47858	948.33197	968.37109	-422.90616	957.15625	973.17053	-685.55884	855.28308	908.22961	-383.14136	882.15759	918.03607	-761.85089	685.23279	482.26602	-438.27106	656.33173	493.771	-567.68469	1124.3422	546.99567	-584.17133	1141.5126	558.54248	-705.60889	1174.0125	463.17343	-655.3465	688.03064	392.14868	-498.0806	432.62305	100.0518	-477.19153	455.75806	107.2223	-562.26788	1008.545	129.6277	-610.51715	984.84723	106.50264	-692.8454	1136.4497	63.012375	-725.06152	1200.3612	78.924385	-653.51794	634.72717	35.085255	-506.19006	561.55048	34.917267	-433.89972	337.12686	32.119865	-520.66602	908.52319	33.633301	-648.82037	902.60968	1212.7924	-553.6333
3059	30.58	1170.6978	1366.3138	-448.49771	1148.3408	1379.9376	-715.28009	1132.2371	1435.3481	-575.76868	1186.1399	1243.1348	-595.23322	780.65869	1026.8965	-550.48474	947.94781	964.47736	-423.73502	957.63489	970.23914	-686.18341	854.82361	904.57404	-383.66229	883.08771	914.85504	-762.67627	679.67303	480.75262	-438.7988	650.36194	492.75189	-568.12939	1122.9957	542.02979	-584.28766	1141.1423	554.18945	-705.54297	1173.105	458.47733	-654.97559	680.33191	390.87265	-498.16321	423.01602	101.00941	-477.655	446.65286	107.86607	-562.65033	1008.3387	124.99141	-611.12415	985.89056	101.65482	-693.5694	1138.7473	58.851162	-723.03113	1201.1959	76.217796	-650.66345	624.46716	34.567116	-506.7532	551.31323	34.829659	-434.0094	327.13327	33.529144	-521.33588	909.9328	27.853003	-650.54889	901.81384	1209.4696	-554.25732
3060	30.59	1168.9678	1364.1095	-449.38672	1146.9055	1378.1082	-716.50153	1130.9658	1433.0133	-576.40735	1185.2655	1241.1384	-595.89844	780.84393	1023.3079	-551.61017	947.82941	960.5293	-424.72165	958.31372	967.771	-687.21136	852.48676	901.04816	-386.07959	884.62549	911.88013	-763.57941	674.52759	479.41132	-439.65094	645.77411	491.0882	-569.02759	1121.1404	536.7124	-584.61462	1140.1237	549.28882	-705.65723	1171.7188	452.78806	-654.3161	674.3194	389.18018	-498.69321	413.76721	102.20936	-478.05341	437.66901	108.65766	-562.97339	1005.5456	120.38655	-611.32043	983.74207	96.954185	-694.12427	1136.9446	54.325336	-721.65997	1198.5065	72.238388	-648.29199	614.97028	34.256081	-506.45654	540.97845	34.837849	-434.14847	317.17285	35.500015	-521.84186	907.32361	23.189816	-651.77509	901.21332	1206.2031	-554.84399
